<?xml version="1.0" encoding="UTF-8" standalone="no"?>
<svg
   xmlns:dc="http://purl.org/dc/elements/1.1/"
   xmlns:cc="http://creativecommons.org/ns#"
   xmlns:rdf="http://www.w3.org/1999/02/22-rdf-syntax-ns#"
   xmlns:svg="http://www.w3.org/2000/svg"
   xmlns="http://www.w3.org/2000/svg"
   viewBox="0 0 530.58667 206.78667"
   height="206.78667"
   width="530.58667"
   xml:space="preserve"
   id="svg2"
   version="1.1"><metadata
     id="metadata8"><rdf:RDF><cc:Work
         rdf:about=""><dc:format>image/svg+xml</dc:format><dc:type
           rdf:resource="http://purl.org/dc/dcmitype/StillImage" /></cc:Work></rdf:RDF></metadata><defs
     id="defs6" /><g
     transform="matrix(1.3333333,0,0,-1.3333333,0,206.78667)"
     id="g10"><g
       transform="scale(0.1)"
       id="g12"><path
         id="path14"
         style="fill:#918f90;fill-opacity:1;fill-rule:evenodd;stroke:none"
         d="m 2675.52,1411.92 c 56.16,0 101.52,-46.08 101.52,-101.52 0,-56.16 -45.36,-101.52 -101.52,-101.52 -56.16,0 -101.52,45.36 -101.52,101.52 0,55.44 45.36,101.52 101.52,101.52" /><path
         id="path16"
         style="fill:#918f90;fill-opacity:1;fill-rule:nonzero;stroke:none"
         d="m 3024,1550.88 249.84,-601.923 v -1.441 c 5.04,-12.957 9.36,-23.758 12.24,-32.399 31.68,-79.922 0.72,-134.637 -89.28,-132.48 -7.2,0 -15.84,0 -25.92,0 h -0.72 -145.44 V 653.039 581.758 h -72 H 2718 v -36.719 c 0,-43.199 30.96,-44.641 74.88,-44.641 4.32,0 7.92,0 12.24,0 H 3024 V 429.121 166.32 c 0,-10.8 0.72,-21.601 0.72,-30.238 0.72,-48.2422 1.44,-74.1601 -25.2,-103.6836 C 2969.28,0 2941.2,0 2880.72,0 c -4.32,0 -8.64,0 -13.68,0 L 2574.72,0.71875 V 143.281 h 292.32 c 5.04,0 9.36,0 13.68,0 h 0.72 c 0,6.481 0,13.68 0,22.321 v 191.519 h -76.32 c -4.32,0 -7.92,0 -12.24,0 -127.44,0.719 -216.72,7.918 -218.16,187.199 L 2574,653.039 v 71.277 h 72 235.44 v 129.602 72 h 71.28 177.84 L 2872.08,1550.88 H 3024" /><path
         id="path18"
         style="fill:#ed1c24;fill-opacity:1;fill-rule:nonzero;stroke:none"
         d="M 3979.44,723.602 3807.36,442.801 V 144 H 3664.8 v 298.801 l -177.12,281.515 h 169.92 l 78.48,-126 78.48,126 164.88,-0.714" /><path
         id="path20"
         style="fill:#231f20;fill-opacity:1;fill-rule:nonzero;stroke:none"
         d="m 2267.28,724.316 c 29.52,0 56.88,-5.039 82.8,-16.554 25.2,-10.801 47.52,-25.926 66.24,-44.645 19.44,-19.437 33.84,-41.043 45.36,-66.961 11.52,-25.199 16.56,-51.836 16.56,-80.636 V 144 h -144 v 371.52 c 0,18 -6.48,33.839 -19.44,46.078 -12.96,12.961 -28.8,19.437 -47.52,19.437 -18,0 -33.84,-6.476 -46.8,-19.437 -12.96,-12.239 -19.44,-28.078 -19.44,-46.078 V 144 h -142.56 v 371.52 c 0,18 -6.48,33.839 -20.16,46.078 -12.96,12.961 -28.8,19.437 -46.08,19.437 -18.72,0 -34.56,-6.476 -47.52,-19.437 -12.96,-12.239 -19.44,-28.078 -19.44,-46.078 V 144 h -142.56 v 371.52 c 0,28.8 5.04,55.437 16.56,80.636 11.52,25.918 25.92,47.524 45.36,66.961 18.72,18.719 41.04,33.844 66.24,44.645 25.2,11.515 52.56,16.554 81.36,16.554 26.64,0 51.12,-4.32 74.88,-13.679 23.04,-9.36 43.92,-22.321 62.64,-38.16 18.72,15.839 39.6,28.8 63.36,38.16 23.76,9.359 48.24,13.679 74.16,13.679" /><path
         id="path22"
         style="fill:#231f20;fill-opacity:1;fill-rule:nonzero;stroke:none"
         d="m 1525.68,724.316 c 28.8,0 56.16,-5.039 82.08,-16.554 25.92,-10.801 48.24,-25.926 66.96,-44.645 18.72,-19.437 33.84,-41.043 45.36,-66.961 10.8,-25.199 16.56,-51.836 16.56,-80.636 V 144 h -144 v 371.52 c 0,18 -6.48,33.839 -19.44,46.078 -13.68,12.961 -28.8,19.437 -47.52,19.437 -18.72,0 -33.84,-6.476 -47.52,-19.437 -12.96,-12.239 -19.44,-28.078 -19.44,-46.078 V 144 h -142.56 v 371.52 c 0,18 -6.48,33.839 -19.44,46.078 -12.96,12.961 -28.8,19.437 -47.52,19.437 -18,0 -33.84,-6.476 -46.8,-19.437 -13.68,-12.239 -20.16,-28.078 -20.16,-46.078 V 144 h -142.56 v 371.52 c 0,28.8 5.76,55.437 17.28,80.636 10.8,25.918 25.92,47.524 44.64,66.961 19.44,18.719 41.04,33.844 66.96,44.645 25.2,11.515 51.84,16.554 80.64,16.554 27.36,0 52.56,-4.32 75.6,-13.679 23.76,-9.36 43.92,-22.321 62.64,-38.16 18.72,15.839 40.32,28.8 63.36,38.16 23.76,9.359 48.96,13.679 74.88,13.679" /><path
         id="path24"
         style="fill:#231f20;fill-opacity:1;fill-rule:nonzero;stroke:none"
         d="m 714.957,579.598 c -20.156,-0.719 -39.602,-4.321 -56.883,-12.239 -17.996,-7.203 -33.836,-18 -46.797,-30.961 -12.957,-12.957 -23.757,-28.078 -30.961,-46.078 -7.918,-18 -11.515,-36.718 -11.515,-56.16 0,-20.879 3.597,-39.601 11.515,-57.601 7.204,-18 18.004,-33.84 30.961,-46.797 12.961,-12.242 28.801,-23.043 46.797,-30.242 C 675.355,291.602 694.801,288 714.957,288 V 144 c -40.316,0 -77.762,7.199 -112.32,23.039 -35.278,15.121 -66.242,36 -92.879,61.922 -26.637,26.641 -46.797,57.598 -62.641,92.16 -15.121,35.277 -22.316,72.719 -22.316,113.039 0,39.602 7.195,77.039 22.316,112.32 15.844,35.278 36.004,66.235 62.641,92.875 26.637,26.641 57.601,46.801 92.879,62.645 34.558,15.121 72.004,22.316 112.32,22.316 z m 0.723,0 c -0.723,0 -0.723,0 -0.723,0 v 144.718 c 0,0 0,0 0.723,0 39.597,0 77.039,-7.195 112.316,-22.316 35.281,-15.844 66.242,-36.004 92.883,-62.645 26.641,-26.64 46.797,-57.597 62.637,-92.875 15.121,-35.281 22.324,-72.718 22.324,-112.32 0,-40.32 -7.203,-77.762 -22.324,-113.039 -15.84,-34.562 -35.996,-65.519 -62.637,-92.16 C 894.238,203.039 863.277,182.16 827.996,167.039 792.719,151.199 755.277,144 715.68,144 c -0.723,0 -0.723,0 -0.723,0 v 144 c 0,0 0,0 0.723,0 19.437,0 38.16,3.602 56.156,11.52 18.004,7.199 33.121,18 46.086,30.242 12.957,12.957 23.758,28.797 30.957,46.797 7.918,18 11.519,36.722 11.519,57.601 0,19.442 -3.601,38.16 -11.519,56.16 -7.199,18 -18,33.121 -30.957,46.078 -12.965,12.961 -28.082,23.758 -46.086,30.961 -17.996,7.918 -36.719,12.239 -56.156,12.239" /><path
         id="path26"
         style="fill:#ed1c24;fill-opacity:1;fill-rule:nonzero;stroke:none"
         d="m 3139.92,289.441 h 293.04 c 10.08,0 18.72,3.598 26.64,10.079 7.2,7.199 10.8,15.839 10.8,25.199 0,10.082 -3.6,18.722 -10.8,25.922 -7.92,7.199 -16.56,10.8 -26.64,10.8 h -131.04 c -24.48,0 -48.24,4.321 -69.84,13.68 -21.6,9.359 -41.04,23.039 -57.6,38.879 -15.84,16.559 -28.8,36 -38.88,58.32 -9.36,21.602 -13.68,45.36 -13.68,70.559 0,24.48 4.32,48.238 13.68,69.836 10.08,22.324 23.04,41.765 38.88,58.32 16.56,15.84 36,29.524 57.6,38.883 21.6,10.078 45.36,14.398 69.84,14.398 h 152.64 V 579.598 h -152.64 c -10.08,0 -18.72,-4.321 -25.92,-10.797 -6.48,-7.203 -10.08,-15.84 -10.08,-25.922 0,-10.078 3.6,-18.719 10.08,-26.641 7.2,-7.199 15.84,-10.797 25.92,-10.797 h 131.04 c 25.2,0 48.96,-5.043 70.56,-14.402 22.32,-9.359 41.76,-22.32 58.32,-38.879 15.84,-16.558 28.8,-36 38.88,-57.601 9.36,-21.598 13.68,-45.36 13.68,-69.84 0,-24.481 -4.32,-48.239 -13.68,-69.84 -10.08,-22.32 -23.04,-41.758 -38.88,-58.32 -16.56,-15.84 -36,-28.797 -58.32,-38.879 -21.6,-9.36 -45.36,-13.68 -70.56,-13.68 H 3200.4 l -60.48,145.441" /><path
         id="path28"
         style="fill:#231f20;fill-opacity:1;fill-rule:nonzero;stroke:none"
         d="m 290.879,144 c -40.32,0 -77.758,7.199 -113.043,23.039 -35.277,15.121 -66.238,36 -92.1563,61.922 -26.6406,26.641 -47.5195,57.598 -62.6445,92.16 C 7.91797,356.398 0,393.84 0,434.16 c 0,40.32 7.91797,77.762 23.0352,113.762 15.125,35.277 36.0039,66.234 62.6445,92.875 25.9183,26.641 56.8793,46.801 92.1563,62.641 35.285,15.117 72.723,22.32 113.043,22.32 38.879,0 76.316,-7.203 111.601,-21.602 16.559,-7.195 32.399,-15.84 47.52,-25.199 L 393.121,541.441 c -13.683,12.239 -28.805,22.317 -45.363,28.797 -18,7.2 -36.719,10.797 -56.879,10.797 -20.16,0 -38.883,-4.316 -56.879,-12.234 -18.004,-7.203 -33.121,-18 -46.805,-30.961 C 173.516,524.879 163.438,509.039 155.52,491.039 147.598,473.762 144,454.32 144,434.16 c 0,-20.879 3.598,-39.601 11.52,-57.601 7.918,-18 17.996,-33.84 31.675,-46.797 C 200.879,317.52 215.996,306.719 234,299.52 251.996,291.602 270.719,288 290.879,288 c 20.16,0 38.879,3.602 56.879,10.801 16.558,7.199 31.68,17.277 45.363,29.519 L 450,190.801 c -15.121,-9.36 -30.961,-18 -47.52,-24.481 C 367.195,151.199 329.758,144 290.879,144" /></g></g></svg>